#!OML:ASF F:\VICON\USERDATA\INSTALL\rory3\rory3.ASF
:FULLY-SPECIFIED
:DEGREES
179
root 0.13069 17.2525 4.26982 1.88123 -59.9319 12.7181
lowerback -7.89939 0.956044 7.83075
upperback -6.18991 0.669753 -2.28768
thorax -1.93474 -0.0291212 -6.76897
lowerneck -10.0635 11.4069 4.501
upperneck 35.4635 16.6262 -3.84986
head 14.6678 7.02744 0.203047
rclavicle 4.64162e-014 -5.56597e-015
rhumerus 8.52771 -8.33854 -5.25046
rradius 115.728
rwrist -54.6565
rhand -1.98177 -41.5871
rfingers 7.12502
rthumb 23.6909 -70.1471
lclavicle 4.64162e-014 -5.56597e-015
lhumerus 33.1558 13.3822 2.35528
lradius 46.9209
lwrist 58.2588
lhand -20.976 -18.0213
lfingers 7.12502
lthumb 5.39751 11.8899
rfemur -11.7876 -0.349673 -3.58465
rtibia 39.1944
rfoot -4.05668 -19.7866
rtoes -19.7289
lfemur -23.8194 -3.18011 -32.2251
ltibia 26.2587
lfoot -14.2379 -4.93866
ltoes 23.1817
180
root 0.13307 17.2476 4.26969 1.7847 -59.8485 12.8348
lowerback -7.95752 0.938773 7.73639
upperback -6.19176 0.64737 -2.26397
thorax -1.90787 -0.0358273 -6.69068
lowerneck -9.95412 11.3989 4.38711
upperneck 35.6423 16.6845 -3.94105
head 14.7308 7.01681 0.189464
rclavicle 4.11981e-014 7.15625e-015
rhumerus 8.66877 -7.90431 -5.49631
rradius 115.754
rwrist -54.649
rhand -2.64453 -41.7362
rfingers 7.12502
rthumb 23.0551 -70.3771
lclavicle 4.11981e-014 7.15625e-015
lhumerus 33.1283 13.3161 2.89233
lradius 47.2603
lwrist 58.2189
lhand -21.1268 -16.6904
lfingers 7.12502
lthumb 5.25192 13.2246
rfemur -11.8099 -0.605245 -3.68765
rtibia 39.2697
rfoot -3.43782 -19.7078
rtoes -20.3318
lfemur -23.9002 -3.15699 -32.3137
ltibia 26.4352
lfoot -14.2699 -5.12494
ltoes 23.527
181
root 0.137487 17.2408 4.26932 2.04647 -59.7292 12.5567
lowerback -8.02064 0.942753 7.8708
upperback -6.17468 0.640068 -2.24803
thorax -1.85722 -0.0405674 -6.75093
lowerneck -9.99159 11.3494 4.30604
upperneck 35.8905 16.6231 -3.8801
head 14.8371 6.9719 0.222229
rclavicle 2.75814e-014 7.15625e-015
rhumerus 8.69251 -7.53349 -5.88809
rradius 115.717
rwrist -54.7029
rhand -2.67451 -41.8209
rfingers 7.12502
rthumb 23.0263 -70.4654
lclavicle 2.75814e-014 7.15625e-015
lhumerus 33.2075 13.2272 3.37752
lradius 47.6354
lwrist 57.9154
lhand -21.339 -16.397
lfingers 7.12502
lthumb 5.04698 13.5229
rfemur -11.8319 -0.666825 -3.53768
rtibia 39.3664
rfoot -2.97928 -19.7014
rtoes -20.8522
lfemur -24.0136 -3.14432 -32.1837
ltibia 26.6059
lfoot -14.2622 -5.30998
ltoes 23.8873
182
root 0.142849 17.2341 4.26705 2.2146 -59.6776 12.3387
lowerback -7.99159 0.922157 7.94823
upperback -6.17207 0.611394 -2.17651
thorax -1.8763 -0.0565658 -6.72107
lowerneck -10.0739 11.3467 4.29274
upperneck 36.1798 16.6544 -3.90997
head 14.9995 6.95849 0.229653
rclavicle 5.12864e-014 3.97569e-015
rhumerus 8.85879 -7.1542 -6.30261
rradius 115.709
rwrist -54.7727
rhand -2.35313 -42.1576
rfingers 7.12502
rthumb 23.3347 -70.7633
lclavicle 5.12864e-014 3.97569e-015
lhumerus 33.0827 13.0418 3.63753
lradius 47.9867
lwrist 57.8576
lhand -21.4986 -17.3585
lfingers 7.12502
lthumb 4.89289 12.565
rfemur -11.8544 -0.495557 -3.38132
rtibia 39.4662
rfoot -2.55949 -19.8141
rtoes -21.737
lfemur -24.1069 -3.25835 -32.0639
ltibia 26.7958
lfoot -14.3414 -5.18992
ltoes 23.6211
183
root 0.149005 17.2295 4.26465 2.15627 -59.7206 12.3159
lowerback -7.89201 1.02028 7.94536
upperback -6.07461 0.751632 -2.26881
thorax -1.80321 0.0209168 -6.80853
lowerneck -10.4178 11.2657 4.50024
upperneck 36.4959 16.5155 -3.92417
head 15.249 6.89527 0.20083
rclavicle -1.13804e-014 3.65764e-014
rhumerus 8.635 -6.98381 -6.66255
rradius 115.695
rwrist -54.5924
rhand -2.01672 -42.2207
rfingers 7.12502
rthumb 23.6574 -70.785
lclavicle -1.13804e-014 3.65764e-014
lhumerus 33.3394 13.0255 3.92031
lradius 48.2572
lwrist 58.1709
lhand -21.7052 -16.6437
lfingers 7.12502
lthumb 4.69339 13.2843
rfemur -11.8521 -0.195601 -3.33938
rtibia 39.5498
rfoot -2.60392 -19.9209
rtoes -21.6845
lfemur -24.1498 -3.37993 -32.036
ltibia 26.9913
lfoot -14.4515 -5.05401
ltoes 23.3864
184
root 0.155916 17.2262 4.2643 2.16362 -59.7141 12.2381
lowerback -7.87165 1.10139 8.04602
upperback -5.95354 0.856299 -2.39099
thorax -1.6675 0.0804801 -6.98918
lowerneck -10.5469 11.1978 4.56328
upperneck 36.6058 16.3875 -3.87701
head 15.3257 6.84557 0.19915
rclavicle -7.01213e-014 -1.43125e-014
rhumerus 8.40901 -6.81102 -7.163
rradius 115.656
rwrist -54.485
rhand -2.02705 -41.9816
rfingers 7.12502
rthumb 23.6474 -70.5472
lclavicle -7.01213e-014 -1.43125e-014
lhumerus 33.5401 12.9834 4.13066
lradius 48.609
lwrist 58.3525
lhand -21.7533 -16.2181
lfingers 7.12502
lthumb 4.64703 13.7109
rfemur -11.8381 -0.0375551 -3.30955
rtibia 39.6245
rfoot -3.01248 -19.8743
rtoes -20.651
lfemur -24.2089 -3.39842 -31.9979
ltibia 27.1716
lfoot -14.4631 -5.15555
ltoes 23.8292
185
root 0.161776 17.2231 4.26248 2.16638 -59.6661 12.2191
lowerback -7.89733 1.1447 8.07247
upperback -5.87843 0.910686 -2.46312
thorax -1.56362 0.114256 -7.07704
lowerneck -10.5231 11.1323 4.49182
upperneck 36.6353 16.2802 -3.80924
head 15.3111 6.79921 0.216453
rclavicle 2.16178e-014 7.95139e-015
rhumerus 8.29998 -6.54943 -7.63908
rradius 115.625
rwrist -54.3913
rhand -2.12679 -41.8112
rfingers 7.12502
rthumb 23.5518 -70.3892
lclavicle 2.16178e-014 7.95139e-015
lhumerus 33.6342 12.8195 4.29567
lradius 49.061
lwrist 58.2356
lhand -21.9525 -16.9567
lfingers 7.12502
lthumb 4.45465 12.9764
rfemur -11.8679 -0.0249826 -3.32122
rtibia 39.6961
rfoot -3.13338 -19.7725
rtoes -20.1539
lfemur -24.3152 -3.38616 -32.0005
ltibia 27.3547
lfoot -14.4742 -5.2389
ltoes 23.9993
186
root 0.167195 17.2171 4.25873 2.0444 -59.688 12.2917
lowerback -7.91151 1.03722 8.05539
upperback -5.87019 0.767348 -2.36803
thorax -1.57366 0.0442007 -6.97543
lowerneck -10.247 11.1927 4.22165
upperneck 36.6772 16.4515 -3.86388
head 15.2557 6.83166 0.244822
rclavicle 9.49197e-015 7.15625e-015
rhumerus 8.77777 -6.10712 -8.1345
rradius 115.511
rwrist -54.0791
rhand -1.35212 -41.5578
rfingers 7.12502
rthumb 24.2947 -70.0383
lclavicle 9.49197e-015 7.15625e-015
lhumerus 33.0384 12.5285 4.18166
lradius 49.537
lwrist 58.1649
lhand -22.0761 -17.1155
lfingers 7.12502
lthumb 4.33531 12.8202
rfemur -11.8753 0.106432 -3.37042
rtibia 39.756
rfoot -2.89622 -19.7232
rtoes -20.6205
lfemur -24.3797 -3.3181 -32.0609
ltibia 27.559
lfoot -14.5825 -5.21515
ltoes 23.4385
187
root 0.175076 17.2107 4.2542 2.09975 -59.6458 12.1436
lowerback -7.93703 1.02218 8.26621
upperback -5.76519 0.733204 -2.40797
thorax -1.45574 0.030758 -7.14123
lowerneck -10.2454 11.1713 4.20608
upperneck 36.7437 16.4668 -3.97962
head 15.3027 6.81393 0.204156
rclavicle -2.5842e-014 3.33958e-014
rhumerus 8.88286 -5.95722 -8.66434
rradius 115.294
rwrist -53.8583
rhand -0.849866 -41.296
rfingers 7.12502
rthumb 24.7761 -69.7112
lclavicle -2.5842e-014 3.33958e-014
lhumerus 32.8911 12.4104 4.15147
lradius 49.8556
lwrist 58.2339
lhand -21.5244 -16.7571
lfingers 7.12502
lthumb 4.86803 13.167
rfemur -11.8396 0.269356 -3.28659
rtibia 39.8091
rfoot -3.19137 -19.7206
rtoes -19.8292
lfemur -24.4414 -3.25568 -32.0048
ltibia 27.7496
lfoot -14.6599 -5.25259
ltoes 23.147
188
root 0.18361 17.2101 4.25177 2.48406 -59.5029 11.7076
lowerback -7.99659 1.04599 8.59541
upperback -5.68028 0.740483 -2.42824
thorax -1.33338 0.0348321 -7.35138
lowerneck -10.2991 11.1353 4.11892
upperneck 36.8272 16.4252 -3.94231
head 15.3391 6.78289 0.229938
rclavicle -7.98617e-014 -2.94201e-014
rhumerus 8.81661 -5.73841 -9.00927
rradius 115.244
rwrist -53.783
rhand -1.76418 -41.4742
rfingers 7.12502
rthumb 23.8996 -70.007
lclavicle -7.98617e-014 -2.94201e-014
lhumerus 33.0282 12.3844 4.49464
lradius 50.0528
lwrist 58.129
lhand -20.7729 -16.5513
lfingers 7.12502
lthumb 5.59364 13.3549
rfemur -11.8464 0.279968 -3.03375
rtibia 39.8629
rfoot -3.72938 -19.7162
rtoes -18.388
lfemur -24.5659 -3.34297 -31.7653
ltibia 27.8871
lfoot -14.6566 -5.31927
ltoes 23.3348
189
root 0.190361 17.2121 4.25206 2.72423 -59.4473 11.4632
lowerback -7.99709 1.05282 8.6572
upperback -5.67568 0.74634 -2.32163
thorax -1.32793 0.038618 -7.27207
lowerneck -10.3289 11.1276 3.89682
upperneck 37.0357 16.475 -3.91822
head 15.4243 6.76362 0.287204
rclavicle -5.51627e-014 -1.98785e-014
rhumerus 8.86164 -5.27962 -9.12938
rradius 115.364
rwrist -53.7839
rhand -2.56097 -41.9415
rfingers 7.12502
rthumb 23.1353 -70.5723
lclavicle -5.51627e-014 -1.98785e-014
lhumerus 32.9562 12.2062 5.06772
lradius 50.3176
lwrist 57.8619
lhand -20.5892 -17.5752
lfingers 7.12502
lthumb 5.77099 12.3262
rfemur -11.9265 0.176787 -2.91046
rtibia 39.925
rfoot -3.58309 -19.6613
rtoes -18.4377
lfemur -24.6588 -3.62682 -31.5917
ltibia 27.971
lfoot -14.67 -5.15345
ltoes 23.413
190
root 0.19644 17.2091 4.25074 2.34663 -59.446 11.9074
lowerback -7.9613 1.07648 8.29734
upperback -5.68017 0.803107 -2.31284
thorax -1.34022 0.076873 -7.05156
lowerneck -10.368 11.0558 3.86653
upperneck 37.2163 16.4365 -4.04495
head 15.5354 6.71269 0.239891
rclavicle -1.16289e-014 -1.59028e-014
rhumerus 8.86188 -4.89972 -9.3198
rradius 115.279
rwrist -53.7787
rhand -1.98057 -41.9251
rfingers 7.12502
rthumb 23.692 -70.485
lclavicle -1.16289e-014 -1.59028e-014
lhumerus 32.8631 11.9013 5.55819
lradius 50.754
lwrist 57.8237
lhand -21.0907 -18.9134
lfingers 7.12502
lthumb 5.28674 11.0007
rfemur -11.9709 0.156213 -3.23217
rtibia 39.9943
rfoot -3.96741 -19.3769
rtoes -17.3948
lfemur -24.6974 -3.91494 -31.8091
ltibia 28.0302
lfoot -14.7371 -4.83638
ltoes 23.2016
191
root 0.203005 17.2004 4.24592 1.72291 -59.4048 12.5751
lowerback -7.88437 1.1224 7.82747
upperback -5.65257 0.899136 -2.44375
thorax -1.3342 0.138046 -6.91462
lowerneck -10.4303 10.9264 4.02768
upperneck 37.3365 16.2304 -4.09868
head 15.6234 6.63123 0.164088
rclavicle 4.47017e-014 -2.38542e-015
rhumerus 8.69812 -4.60829 -9.68816
rradius 115.077
rwrist -53.5324
rhand -1.07089 -41.6413
rfingers 7.12502
rthumb 24.5643 -70.0855
lclavicle 4.47017e-014 -2.38542e-015
lhumerus 33.0405 11.6917 6.03403
lradius 51.247
lwrist 57.8148
lhand -19.9825 -21.5049
lfingers 7.12502
lthumb 6.35669 8.37973
rfemur -11.9006 0.380568 -3.6768
rtibia 40.0735
rfoot -4.88656 -18.9398
rtoes -15.46
lfemur -24.6879 -3.95587 -32.1897
ltibia 28.0982
lfoot -14.7789 -4.80217
ltoes 23.1738
